<svg width="50" height="50" viewBox="0 0 50 50" fill="none" xmlns="http://www.w3.org/2000/svg">
<rect width="50" height="50" rx="15" fill="#FAFAFA"/>
<path d="M38.1654 20.9704H37.125V20.9168H25.5V26.0835H32.7999C31.7349 29.0911 28.8732 31.2502 25.5 31.2502C21.2201 31.2502 17.75 27.7801 17.75 23.5002C17.75 19.2202 21.2201 15.7502 25.5 15.7502C27.4756 15.7502 29.273 16.4955 30.6415 17.7129L34.295 14.0594C31.9881 11.9094 28.9023 10.5835 25.5 10.5835C18.3668 10.5835 12.5833 16.3669 12.5833 23.5002C12.5833 30.6334 18.3668 36.4168 25.5 36.4168C32.6332 36.4168 38.4167 30.6334 38.4167 23.5002C38.4167 22.6341 38.3276 21.7887 38.1654 20.9704Z" fill="#FFC107"/>
<path d="M14.0726 17.4881L18.3164 20.6004C19.4647 17.7574 22.2456 15.7502 25.5 15.7502C27.4756 15.7502 29.2729 16.4955 30.6415 17.7129L34.2949 14.0594C31.988 11.9094 28.9022 10.5835 25.5 10.5835C20.5387 10.5835 16.2361 13.3845 14.0726 17.4881Z" fill="#FF3D00"/>
<path d="M25.5 36.4166C28.8364 36.4166 31.8679 35.1398 34.16 33.0635L30.1623 29.6806C28.8654 30.6629 27.2534 31.25 25.5 31.25C22.1404 31.25 19.2877 29.1077 18.2131 26.1182L14.0009 29.3635C16.1387 33.5465 20.4799 36.4166 25.5 36.4166Z" fill="#4CAF50"/>
<path d="M38.1654 20.9701H37.125V20.9165H25.5V26.0832H32.7999C32.2884 27.5279 31.359 28.7737 30.1603 29.6811C30.161 29.6805 30.1616 29.6805 30.1623 29.6798L34.16 33.0627C33.8771 33.3197 38.4167 29.9582 38.4167 23.4998C38.4167 22.6338 38.3275 21.7884 38.1654 20.9701Z" fill="#1976D2"/>
</svg>
